<svg xmlns="http://www.w3.org/2000/svg" width="100" height="100" fill="none" viewBox="0 0 24 24">
    <path fill="#0C0C0D"
        d="M16.074 11.478a4.605 4.605 0 0 0-3.408 1.517 4.555 4.555 0 0 0-1.164 3.554 4.595 4.595 0 0 0 7.98 2.605 4.554 4.554 0 0 0 1.163-3.554 4.593 4.593 0 0 0-4.571-4.122Zm8.5-5.727a.24.24 0 0 1 .164.064l.537.503a13.43 13.43 0 0 1 3.083 4.356 13.274 13.274 0 0 1 1.137 5.4c0 2.372-.63 4.705-1.823 6.746a13.572 13.572 0 0 1-4.508 4.642.102.102 0 0 0-.035.135l.56 1.011a.103.103 0 0 0 .09.053.099.099 0 0 0 .053-.015 14.947 14.947 0 0 0 5.003-5.123 14.73 14.73 0 0 0 2.02-7.449c0-8.15-6.63-14.782-14.781-14.782-.152 0-.305.003-.457.007-7.403.225-13.531 5.958-14.254 13.335-.186 1.9-.004 3.792.54 5.625a.101.101 0 0 0 .13.067l2.094-.718a.238.238 0 0 1 .306.154l.158.455a12.222 12.222 0 0 0 4.404 5.797 12.109 12.109 0 0 0 7.597 2.257 12.155 12.155 0 0 0 8.137-3.596 12.162 12.162 0 0 0 3.545-8.161A12.256 12.256 0 0 0 24.7 7.45a.103.103 0 0 0-.072-.03h-.002a.104.104 0 0 0-.073.034L23.112 9.03a.239.239 0 0 1-.326.002l-.538-.493a9.745 9.745 0 0 0-6.965-2.183 9.75 9.75 0 0 0-5.985 2.718A9.714 9.714 0 0 0 7.42 20.558c.8 1.535 2 2.837 3.47 3.762a.1.1 0 0 0 .08.013.101.101 0 0 0 .063-.051l1.043-1.982c.057-.088.131-.128.212-.128a.24.24 0 0 1 .112.028l.627.33a7.039 7.039 0 0 0 3.044.689 7.127 7.127 0 0 0 7.096-6.292 7.09 7.09 0 0 0-1.64-5.46 7.223 7.223 0 0 0-4.735-2.498h-.01a.101.101 0 0 0-.102.101v1.143a.1.1 0 0 0 .089.1c2.867.347 5.113 2.877 5.113 5.761a5.815 5.815 0 0 1-6.34 5.785 5.803 5.803 0 0 1-5.245-5.167 5.766 5.766 0 0 1 1.332-4.351 5.886 5.886 0 0 1 3.748-2.027c.05-.007.09-.05.09-.101V7.962a.234.234 0 0 1 .052-.152.24.24 0 0 1 .183-.09l.268-.002h.138c.133.002.285.009.33.01a8.33 8.33 0 0 1 5.7 2.605 8.306 8.306 0 0 1 2.292 5.852 8.317 8.317 0 0 1-2.373 5.713 8.32 8.32 0 0 1-9.269 1.855.102.102 0 0 0-.13.046l-1.066 2.024a.235.235 0 0 1-.213.13.241.241 0 0 1-.11-.026l-.031-.016c-.072-.038-.19-.1-.27-.144l-.35-.194a11.042 11.042 0 0 1-4.184-4.287 10.925 10.925 0 0 1-1.29-6.075c.42-5.421 4.832-9.756 10.266-10.08a10.991 10.991 0 0 1 7.393 2.301.102.102 0 0 0 .138-.011s1.458-1.595 1.465-1.601a.244.244 0 0 1 .169-.07Zm-1.2 24.533a.237.237 0 0 1-.212-.128l-1.094-1.971a.1.1 0 0 0-.133-.042 13.242 13.242 0 0 1-5.861 1.352c-2.769 0-5.429-.84-7.691-2.43a13.45 13.45 0 0 1-4.729-5.911.101.101 0 0 0-.127-.057l-2.126.73a.24.24 0 0 1-.304-.14c-.001-.006-.07-.196-.127-.358a15.982 15.982 0 0 1-.89-5.255 15.89 15.89 0 0 1 4.684-11.31A15.89 15.89 0 0 1 16.074.079c1.609 0 3.237.24 4.84.71a15.498 15.498 0 0 1 6.47 3.805 15.383 15.383 0 0 1 3.904 6.408c1.161 3.762 1.028 7.593-.386 11.076a16.118 16.118 0 0 1-6.77 7.81l-.175.1-.465.265a.243.243 0 0 1-.118.031Z" />
    <path fill="currentColor" fillRule="evenodd"
        d="M12 4.1a7.9 7.9 0 1 0 0 15.8 7.9 7.9 0 0 0 0-15.8ZM1.9 12C1.9 6.422 6.422 1.9 12 1.9c5.578 0 10.1 4.522 10.1 10.1 0 5.578-4.522 10.1-10.1 10.1-5.578 0-10.1-4.522-10.1-10.1Z"
        clipRule="evenodd" />
</svg>